<svg width="62" height="11" viewBox="0 0 62 11" fill="none" xmlns="http://www.w3.org/2000/svg">
<path d="M1.272 1.52C1.272 1.112 1.216 0.812 1.104 0.62C0.992 0.42 0.768 0.319999 0.432 0.319999H0.192V0.0799997H1.272C1.568 0.0799997 1.788 0.12 1.932 0.2C2.084 0.272 2.192 0.408 2.256 0.607999C2.32 0.808 2.352 1.112 2.352 1.52V3.68H5.952V0.0799997H7.032V6.56C7.032 6.968 7.088 7.272 7.2 7.472C7.312 7.664 7.536 7.76 7.872 7.76H8.112V8H7.032C6.736 8 6.512 7.964 6.36 7.892C6.216 7.812 6.112 7.672 6.048 7.472C5.984 7.272 5.952 6.968 5.952 6.56V4.16H2.352V8H1.272V1.52ZM10.3643 8.12C10.1083 8.12 9.84825 8.068 9.58425 7.964C9.32025 7.852 9.09225 7.672 8.90025 7.424C8.71625 7.176 8.62425 6.848 8.62425 6.44C8.62425 5.832 8.90425 5.4 9.46425 5.144C10.0323 4.888 10.7723 4.76 11.6842 4.76H12.0443C12.0443 3.976 11.9363 3.44 11.7203 3.152C11.5043 2.864 11.1923 2.72 10.7843 2.72C10.4243 2.72 10.1363 2.796 9.92025 2.948C9.70425 3.1 9.55225 3.364 9.46425 3.74H8.92425C8.92425 3.468 8.94025 3.256 8.97225 3.104C9.00425 2.944 9.08825 2.796 9.22425 2.66C9.36825 2.516 9.60425 2.412 9.93225 2.348C10.2683 2.276 10.6323 2.24 11.0243 2.24C11.6723 2.24 12.1843 2.416 12.5603 2.768C12.9363 3.112 13.1243 3.776 13.1243 4.76V8H12.5243L12.1043 7.46H12.0443C11.9003 7.644 11.6883 7.8 11.4083 7.928C11.1283 8.056 10.7803 8.12 10.3643 8.12ZM10.9043 7.58C11.1683 7.58 11.3883 7.516 11.5643 7.388C11.7403 7.26 11.9003 7.084 12.0443 6.86V5.24H11.6842C11.0923 5.24 10.6243 5.352 10.2803 5.576C9.93625 5.792 9.76425 6.08 9.76425 6.44C9.76425 6.808 9.87225 7.092 10.0883 7.292C10.3123 7.484 10.5843 7.58 10.9043 7.58ZM17.1136 8.12C16.5696 8.12 16.0976 7.992 15.6976 7.736C15.2976 7.472 14.9936 7.116 14.7856 6.668C14.5776 6.22 14.4736 5.724 14.4736 5.18C14.4736 4.636 14.5776 4.14 14.7856 3.692C14.9936 3.244 15.2976 2.892 15.6976 2.636C16.0976 2.372 16.5696 2.24 17.1136 2.24C17.6576 2.24 18.1296 2.372 18.5296 2.636C18.9296 2.892 19.2336 3.244 19.4416 3.692C19.6496 4.14 19.7536 4.636 19.7536 5.18C19.7536 5.724 19.6496 6.22 19.4416 6.668C19.2336 7.116 18.9296 7.472 18.5296 7.736C18.1296 7.992 17.6576 8.12 17.1136 8.12ZM17.1136 7.64C17.4096 7.64 17.6696 7.532 17.8936 7.316C18.1256 7.1 18.3016 6.804 18.4216 6.428C18.5496 6.052 18.6136 5.636 18.6136 5.18C18.6136 4.724 18.5496 4.308 18.4216 3.932C18.3016 3.556 18.1256 3.26 17.8936 3.044C17.6696 2.828 17.4096 2.72 17.1136 2.72C16.8176 2.72 16.5536 2.828 16.3216 3.044C16.0976 3.26 15.9216 3.556 15.7936 3.932C15.6736 4.308 15.6136 4.724 15.6136 5.18C15.6136 5.636 15.6736 6.052 15.7936 6.428C15.9216 6.804 16.0976 7.1 16.3216 7.316C16.5536 7.532 16.8176 7.64 17.1136 7.64ZM25.0969 8H24.6169V1.52C24.6169 1.136 24.5329 0.84 24.3649 0.632C24.2049 0.424 23.9289 0.319999 23.5369 0.319999H23.4169V0.0799997H24.1969C24.5649 0.0799997 24.8769 0.14 25.1329 0.26C25.3889 0.379999 25.6169 0.559999 25.8169 0.8L30.0169 6.02V0.0799997H30.4969V8.12H30.2569L25.0969 1.7V8ZM34.4051 10.4C33.5971 10.4 32.9531 10.252 32.4731 9.956C32.0011 9.66 31.7651 9.188 31.7651 8.54C31.7651 8.172 31.8891 7.852 32.1371 7.58C32.3851 7.308 32.7011 7.108 33.0851 6.98C32.7651 6.804 32.6051 6.564 32.6051 6.26C32.6051 6.1 32.6411 5.976 32.7131 5.888C32.7851 5.8 32.8891 5.704 33.0251 5.6C32.7691 5.472 32.5531 5.272 32.3771 5C32.2091 4.728 32.1251 4.408 32.1251 4.04C32.1251 2.84 32.8851 2.24 34.4051 2.24H36.6251V2.54L35.8451 2.66V2.72C36.0931 2.848 36.2931 3.028 36.4451 3.26C36.6051 3.484 36.6851 3.744 36.6851 4.04C36.6851 5.24 35.9251 5.84 34.4051 5.84C33.5651 5.84 33.1451 5.98 33.1451 6.26C33.1451 6.54 33.5651 6.68 34.4051 6.68C35.1811 6.68 35.8131 6.836 36.3011 7.148C36.7971 7.452 37.0451 7.916 37.0451 8.54C37.0451 9.188 36.8051 9.66 36.3251 9.956C35.8531 10.252 35.2131 10.4 34.4051 10.4ZM34.4051 5.42C34.7651 5.42 35.0531 5.312 35.2691 5.096C35.4931 4.872 35.6051 4.52 35.6051 4.04C35.6051 3.584 35.4931 3.24 35.2691 3.008C35.0531 2.776 34.7651 2.66 34.4051 2.66C34.0451 2.66 33.7531 2.772 33.5291 2.996C33.3131 3.212 33.2051 3.56 33.2051 4.04C33.2051 4.52 33.3131 4.872 33.5291 5.096C33.7531 5.312 34.0451 5.42 34.4051 5.42ZM34.4051 9.92C34.8851 9.92 35.2651 9.804 35.5451 9.572C35.8251 9.348 35.9651 9.004 35.9651 8.54C35.9651 7.74 35.4851 7.28 34.5251 7.16L33.8651 7.1C33.5371 7.228 33.2851 7.408 33.1091 7.64C32.9331 7.872 32.8451 8.172 32.8451 8.54C32.8451 9.004 32.9851 9.348 33.2651 9.572C33.5451 9.804 33.9251 9.92 34.4051 9.92ZM40.2754 8.12C39.6754 8.12 39.1834 7.96 38.7994 7.64C38.4234 7.32 38.2354 6.76 38.2354 5.96V3.8C38.2354 3.392 38.1794 3.092 38.0674 2.9C37.9554 2.7 37.7314 2.6 37.3954 2.6H37.2754V2.36H38.2354C38.5314 2.36 38.7514 2.4 38.8954 2.48C39.0474 2.552 39.1554 2.688 39.2194 2.888C39.2834 3.088 39.3154 3.392 39.3154 3.8V5.96C39.3154 6.52 39.4394 6.932 39.6874 7.196C39.9434 7.452 40.2594 7.58 40.6354 7.58C41.0594 7.58 41.4594 7.368 41.8354 6.944V2.36H42.9154V8H42.3154L41.8954 7.52H41.8354C41.6674 7.688 41.4474 7.832 41.1754 7.952C40.9114 8.064 40.6114 8.12 40.2754 8.12ZM45.0413 10.04C45.4333 10.04 45.7533 9.948 46.0013 9.764C46.2573 9.588 46.4773 9.26 46.6613 8.78L46.9013 8.12L44.9813 3.44C44.7573 2.864 44.3173 2.544 43.6612 2.48V2.24H44.6813C45.3773 2.24 45.8573 2.56 46.1213 3.2L47.4893 6.524L49.0013 2.36H49.6013L47.2613 8.78C47.0293 9.412 46.7733 9.84 46.4933 10.064C46.2133 10.288 45.8493 10.4 45.4013 10.4H45.0413V10.04ZM52.8998 8.12C52.3558 8.12 51.8958 7.992 51.5198 7.736C51.1438 7.472 50.8598 7.12 50.6678 6.68C50.4758 6.232 50.3798 5.732 50.3798 5.18C50.3798 4.636 50.4758 4.14 50.6678 3.692C50.8598 3.244 51.1358 2.892 51.4958 2.636C51.8638 2.372 52.2918 2.24 52.7798 2.24C53.5878 2.24 54.1878 2.468 54.5798 2.924C54.9798 3.372 55.1798 4.024 55.1798 4.88L55.1558 5.36H51.5198C51.5198 6.032 51.6638 6.58 51.9518 7.004C52.2398 7.428 52.6358 7.64 53.1398 7.64C53.5158 7.64 53.8318 7.56 54.0878 7.4C54.3518 7.24 54.5958 7 54.8198 6.68L55.0598 6.86C54.7958 7.3 54.4878 7.62 54.1358 7.82C53.7838 8.02 53.3718 8.12 52.8998 8.12ZM54.0398 4.88C54.0398 4.176 53.9358 3.64 53.7278 3.272C53.5198 2.904 53.2038 2.72 52.7798 2.72C52.5398 2.72 52.3238 2.816 52.1318 3.008C51.9398 3.192 51.7878 3.448 51.6758 3.776C51.5718 4.104 51.5198 4.472 51.5198 4.88H54.0398ZM56.7432 3.8C56.7432 3.392 56.6872 3.092 56.5752 2.9C56.4632 2.7 56.2392 2.6 55.9032 2.6H55.6632V2.36H56.7432C57.0392 2.36 57.2632 2.4 57.4152 2.48C57.5752 2.56 57.6912 2.68 57.7632 2.84H57.8232C57.9912 2.672 58.2072 2.532 58.4712 2.42C58.7432 2.3 59.0472 2.24 59.3832 2.24C59.9832 2.24 60.4712 2.4 60.8472 2.72C61.2312 3.04 61.4232 3.6 61.4232 4.4V8H60.3432V4.4C60.3432 3.84 60.2152 3.432 59.9592 3.176C59.7112 2.912 59.3992 2.78 59.0232 2.78C58.5992 2.78 58.1992 2.992 57.8232 3.416V8H56.7432V3.8Z" fill="white"/>
</svg>
